<svg width="186" height="186" viewBox="0 0 186 186" fill="none" xmlns="http://www.w3.org/2000/svg">
<path d="M92.9651 185.93C144.308 185.93 185.93 144.308 185.93 92.9651C185.93 41.6219 144.308 0 92.9651 0C41.6219 0 0 41.6219 0 92.9651C0 144.308 41.6219 185.93 92.9651 185.93Z" fill="#ECF1FC"/>
<path d="M18 34.1544C18 29.6508 21.6508 26 26.1544 26H159.795C164.299 26 167.95 29.6508 167.95 34.1544V152.846C167.95 157.349 164.299 161 159.795 161H26.1544C21.6508 161 18 157.349 18 152.846V34.1544Z" fill="#70A0FF"/>
<path d="M31.5898 55.4463H154.811V150.581H31.5898V55.4463Z" fill="#F3F7FF"/>
<path d="M78.2545 99.8423V77.1913C78.2545 77.1913 64.8914 83.7601 64.6639 99.8423C64.4364 115.925 78.2545 123.399 78.2545 123.399V150.807H107.927V123.399C107.927 123.399 122.424 115.471 121.291 99.8423C120.159 84.2131 107.927 77.1913 107.927 77.1913V99.8423H78.2545Z" fill="#4285F4"/>
<path d="M38.8382 47.2919C42.8413 47.2919 46.0865 44.0467 46.0865 40.0436C46.0865 36.0405 42.8413 32.7953 38.8382 32.7953C34.835 32.7953 31.5898 36.0405 31.5898 40.0436C31.5898 44.0467 34.835 47.2919 38.8382 47.2919Z" fill="#C7DAFF"/>
<path d="M56.053 47.2919C60.0561 47.2919 63.3013 44.0467 63.3013 40.0436C63.3013 36.0405 60.0561 32.7953 56.053 32.7953C52.0499 32.7953 48.8047 36.0405 48.8047 40.0436C48.8047 44.0467 52.0499 47.2919 56.053 47.2919Z" fill="#C7DAFF"/>
<path d="M73.2679 47.2919C77.271 47.2919 80.5162 44.0467 80.5162 40.0436C80.5162 36.0405 77.271 32.7953 73.2679 32.7953C69.2647 32.7953 66.0195 36.0405 66.0195 40.0436C66.0195 44.0467 69.2647 47.2919 73.2679 47.2919Z" fill="#C7DAFF"/>
<path d="M103.168 40.0436C103.168 36.0405 106.413 32.7953 110.416 32.7953H147.564C151.567 32.7953 154.812 36.0405 154.812 40.0436V40.0436C154.812 44.0467 151.567 47.2919 147.564 47.2919H110.416C106.413 47.2919 103.168 44.0467 103.168 40.0436V40.0436Z" fill="#C7DAFF"/>
</svg>
